<svg version="1.1" id="Layer_1" xmlns="http://www.w3.org/2000/svg" x="0" y="0" width="50" height="50" viewBox="0 0 50 50" xml:space="preserve"><linearGradient id="path68_1_" gradientUnits="userSpaceOnUse" x1="-260.336" y1="149.809" x2="-265.527" y2="144.619" gradientTransform="matrix(3.8621 0 0 -3.8621 1031.17 589.102)"><stop offset="0" stop-color="#00a0ff"/><stop offset=".01" stop-color="#00a1ff"/><stop offset=".26" stop-color="#00beff"/><stop offset=".51" stop-color="#00d2ff"/><stop offset=".76" stop-color="#00dfff"/><stop offset="1" stop-color="#00e3ff"/></linearGradient><path id="path68" d="M12.2 9.1c-.4.5-.6 1.1-.5 1.7v26.4c0 .6.2 1.2.5 1.7v.1L27 24.2v-.4L12.2 9.1z" fill="url(#path68_1_)"/><linearGradient id="path70_1_" gradientUnits="userSpaceOnUse" x1="-256.614" y1="146.32" x2="-264.096" y2="146.32" gradientTransform="matrix(3.8621 0 0 -3.8621 1031.17 589.102)"><stop offset="0" stop-color="#ffe000"/><stop offset=".41" stop-color="#ffbd00"/><stop offset=".78" stop-color="orange"/><stop offset="1" stop-color="#ff9c00"/></linearGradient><path id="path70" d="M31.9 29.1L27 24.2v-.4l4.9-4.9.1.1 5.9 3.3c1.7.9 1.7 2.5 0 3.5l-5.8 3.3h-.2z" fill="url(#path70_1_)"/><linearGradient id="path72_1_" gradientUnits="userSpaceOnUse" x1="-259.393" y1="145.599" x2="-266.433" y2="138.562" gradientTransform="matrix(3.8621 0 0 -3.8621 1031.17 589.102)"><stop offset="0" stop-color="#ff3a44"/><stop offset="1" stop-color="#c31162"/></linearGradient><path id="path72" d="M32.1 29.1l-5-5-14.9 14.8c.7.6 1.7.6 2.5.1l17.4-9.9" fill="url(#path72_1_)"/><linearGradient id="path74_1_" gradientUnits="userSpaceOnUse" x1="-264.822" y1="152.444" x2="-261.68" y2="149.301" gradientTransform="matrix(3.8621 0 0 -3.8621 1031.17 589.102)"><stop offset="0" stop-color="#32a071"/><stop offset=".07" stop-color="#2da771"/><stop offset=".48" stop-color="#15cf74"/><stop offset=".8" stop-color="#06e775"/><stop offset="1" stop-color="#00f076"/></linearGradient><path id="path74" d="M32.1 19L14.6 9.1c-.7-.6-1.8-.6-2.5 0L27 24l5.1-5z" fill="url(#path74_1_)"/></svg>