<?xml version="1.0" encoding="utf-8"?>
<!-- Generator: Adobe Illustrator 23.0.1, SVG Export Plug-In . SVG Version: 6.00 Build 0)  -->
<svg version="1.1" id="Layer_2_1_" xmlns="http://www.w3.org/2000/svg" xmlns:xlink="http://www.w3.org/1999/xlink" x="0px" y="0px"
	 width="130px" height="50px" viewBox="0 0 130 50" style="enable-background:new 0 0 130 50;" xml:space="preserve">
<style type="text/css">
	.st0{fill-rule:evenodd;clip-rule:evenodd;fill:#61676C;}
	.st1{fill-rule:evenodd;clip-rule:evenodd;fill:#0D80C1;}
	.st2{fill-rule:evenodd;clip-rule:evenodd;fill:#FFFFFF;}
	.st3{enable-background:new    ;}
	.st4{fill:#FFFFFF;}
</style>
<g>
	<path class="st0" d="M8,4.3h41.8V46H8V4.3z"/>
	<path class="st1" d="M36,39.9l-0.3-0.3l-0.4-0.3L35,39l-0.3-0.3l-0.1-0.1l-0.1-0.1l-0.2-0.2l-0.1-0.1l-0.1-0.1L34,38v-0.2l-0.1-0.1
		l-0.1-0.2l-0.2-0.1l-0.1-0.2h-0.1L33.3,37l-0.1-0.1l-0.1-0.2v-0.2L33,36.4l-0.1-0.3l-0.1-0.2l-0.1-0.2l-0.1-0.2l-0.1-0.3V35
		l-0.1-0.3l-0.1-0.4l-0.1-0.4l-0.1-0.3v-0.4L32,32.8v-1l0.1-0.3v-0.6l0.1-0.2v-0.5l0.1-0.5l0.1-0.3v-1.6l-0.1-0.3v-0.3l-0.1-0.3
		l-0.1-0.2l-0.2-0.3l-0.2-0.3l-0.2-0.4l-0.2-0.3L31.1,25l0.3,0.1h0.3l0.3,0.1l0.2,0.2l0.3,0.1l0.2,0.2l0.2,0.1l0.2,0.2l0.2,0.2
		l0.1,0.2l0.1,0.2l0.2,0.2l0.1,0.2l0.1,0.2l0.1,0.3v0.3l0.1,0.3v0.3l0.1,0.2l0.1,0.3v0.4l0.1,0.3v0.3l0.1,0.3v0.2l0.1,0.4v0.3
		l0.1,0.3l0.1,0.3v0.4l0.1,0.3l0.1,0.3l0.1,0.2v0.2l0.1,0.2l0.1,0.2l0.1,0.2v0.1l0.1,0.2l0.1,0.1l0.1,0.2l0.1,0.1l0.1,0.1l0.2,0.2
		l0.1,0.1l0.1,0.1l0.2,0.1l0.1,0.1l0.2,0.1l0.2,0.1l0.2,0.1l0.2,0.2h0.1l0.3,0.1l0.2,0.1l0.3,0.1l0.3,0.1h0.2l0.3,0.1l0.4,0.1
		l0.3,0.1l0.4,0.1h0.3l0.4,0.1l-0.3-0.2L40.4,36l-0.3-0.2l-0.3-0.3l-0.2-0.3L39.3,35l-0.2-0.3l-0.2-0.3l-0.2-0.2l-0.2-0.3l-0.2-0.2
		l-0.2-0.2l-0.2-0.3L37.8,33l-0.2-0.3l-0.1-0.2l-0.1-0.2L37.3,32l-0.1-0.2l-0.1-0.2L37,31.4v-0.1l-0.1-0.2V31l-0.1-0.1v-0.3h0.3
		l0.2,0.2l0.2,0.1l0.2,0.1l0.2,0.1l0.2,0.1l0.2,0.2l0.3,0.1l0.2,0.1l0.2,0.1l0.2,0.1l0.2,0.1l0.2,0.1l0.2,0.1H40l0.3,0.1l0.2,0.1
		h0.2l0.2,0.1l0.1,0.1h0.2l0.2,0.1h0.2l0.3,0.1h0.4l0.2,0.1h0.7l0.3,0.1H44l-0.5-0.2l-0.4-0.2l-0.4-0.2l-0.4-0.2L42,32l-0.4-0.2
		l-0.3-0.2L41,31.4l-0.2-0.2L40.5,31l-0.3-0.2l-0.3-0.2l-0.2-0.2l-0.3-0.1l-0.2-0.2L39,29.9l-0.2-0.1l-0.2-0.2l-0.2-0.2l-0.2-0.2
		l-0.1-0.3l-0.2-0.1l-0.1-0.2l-0.1-0.2l-0.2-0.2L37.4,28v-0.2l-0.1-0.2l-0.1-0.2l-0.1-0.2L37,27l-0.1-0.2l0.5,0.6l0.5,0.5l0.5,0.5
		l0.5,0.3l0.5,0.4l0.5,0.3l0.5,0.2l0.5,0.1l0.3,0.2h0.5l0.5,0.1H43l0.4-0.1l0.4-0.1l0.4-0.1l0.2-0.1l0.3-0.2l0.4-0.2l0.3-0.2
		l0.3-0.2l0.2-0.2l0.2-0.2l0.3-0.2l0.2-0.2l0.1-0.2l0.1-0.2l0.1-0.2l0.1-0.2v-0.1l0.1-0.2L47,26.8l-0.1-0.2l-0.1-0.3L46.6,26
		l-0.2-0.2l-0.1-0.2l-0.2-0.2l-0.2-0.1l-0.2-0.1l-0.2-0.1L45.3,25h-1.1L44,25.1l-0.3,0.1l-0.2,0.1l-0.3,0.1L43,25.5l-0.3,0.1
		l-0.2,0.2l-0.3,0.1L42,26.1l-0.3,0.2l-0.2,0.2l-0.3,0.1L41,26.8l-0.2,0.1l-0.2,0.2l-0.2,0.2l-0.2,0.2l0.1-0.2l0.2-0.2l0.1-0.2
		l0.2-0.2l0.1-0.2l0.2-0.2l0.1-0.2l0.2-0.2l0.2-0.2l0.2-0.2l0.2-0.1l0.1-0.2l0.2-0.2l0.2-0.2l0.2-0.1l0.2-0.2l0.2-0.2l0.2-0.1
		l0.2-0.2l0.2-0.1l0.2-0.2l0.2-0.1l0.2-0.1l0.2-0.2h0.2l0.3-0.1l0.2-0.2l0.3-0.1l0.2-0.1l0.3-0.1l0.2-0.2l0.3-0.1l-0.4,0.1h-0.6
		l-0.3,0.1l-0.4,0.1h-0.3l-0.2,0.1L44,22.9L43.7,23l-0.3,0.1l-0.3,0.1l-0.2,0.1h-0.3l-0.2,0.1l-0.3,0.1l-0.2,0.2l-0.3,0.1l-0.2,0.1
		l-0.2,0.2l-0.3,0.1l-0.1,0.1l-0.2,0.2l-0.2,0.1l-0.2,0.2L40,24.9l-0.1,0.2l-0.2,0.1l-0.1,0.2l-0.2,0.1l-0.1,0.2l-0.1,0.1L39.1,26
		H39v0.1h-0.3v-0.4l0.1-0.1v-0.2l0.1-0.1l0.1-0.1l0.1-0.1v-0.2l0.1-0.1l0.1-0.1l0.1-0.1l0.1-0.1v-0.1l0.1-0.1l0.1-0.1l0.1-0.1
		l0.1-0.1v-0.1l0.1-0.1l0.1-0.1l0.1-0.1l0.1-0.1l0.1-0.1l0.1-0.1h0.1l0.2-0.2l0.1-0.2l0.2-0.1l0.2-0.2l0.3-0.2l0.3-0.2l0.3-0.2
		l0.3-0.3l0.1-0.1l0.2-0.1l0.1-0.1l0.2-0.1l0.1-0.1l0.2-0.1l0.1-0.2l0.1-0.1l0.2-0.1l0.1-0.1l0.1-0.2l0.1-0.2l0.2-0.1v-0.2h0.1
		l0.1-0.2l0.1-0.1l0.1-0.2l0.1-0.2l0.1-0.2l0.1-0.2l0.1-0.2l0.1-0.3l0.1-0.2l-0.4,0.4l-0.4,0.4l-0.2,0.4L44,19.6l-0.3,0.2L43.5,20
		l-0.3,0.2L43,20.4l-0.3,0.2l-0.2,0.1l-0.2,0.2L42.1,21l-0.2,0.1l-0.2,0.1l-0.2,0.1l-0.2,0.1h-0.2l-0.2,0.1l-0.1,0.1l-0.2,0.1
		l-0.2,0.2L40.1,22l-0.2,0.2l-0.3,0.1l-0.3,0.2l-0.2,0.2L38.8,23l-0.4,0.3l-0.3,0.2l-0.4,0.3l-0.3,0.4L37,24.6l0.1-0.4l0.2-0.4
		l0.1-0.3l0.2-0.3l0.2-0.3l0.1-0.3l0.2-0.2l0.2-0.3l0.3-0.2l0.1-0.2l0.2-0.2l0.2-0.2l0.2-0.1l0.2-0.2l0.2-0.1l0.2-0.1l0.2-0.2
		l0.2-0.1l0.2-0.2l0.2-0.1l0.1-0.2l0.1-0.1l0.2-0.1l0.1-0.2l0.2-0.2l0.1-0.2l0.1-0.3l0.2-0.2l0.1-0.3l0.1-0.3v-0.4l0.1-0.3l-0.2,0.3
		l-0.1,0.2l-0.2,0.2l-0.2,0.2l-0.2,0.2l-0.1,0.2l-0.2,0.1v0.1l-0.2,0.2l-0.1,0.1h-0.1l-0.2,0.1l-0.1,0.1h-0.1l-0.2,0.1h-0.1
		l-0.1,0.1h-0.2l-0.1,0.1l-0.2,0.1h-0.1l-0.2,0.1h-0.1L38.6,20l-0.2,0.1l-0.2,0.1L38,20.4l-0.2,0.2l-0.2,0.1l-0.2,0.2l-0.2,0.3
		L37,21.4l-0.2-0.3v-0.4l-0.1-0.4v-0.4l0.1-0.3v-0.4l0.1-0.5l0.1-0.4l0.1-0.4l0.1-0.4l0.1-0.5l0.1-0.4l0.2-0.7l0.3-0.8l0.1-0.4
		l0.1-0.3l0.1-0.4l0.1-0.3l0.1-0.3l0.1-0.4v-0.6l-0.1-0.3L38.3,12l-0.2-0.2L38,11.6l-0.2-0.1l-0.3-0.1h-0.2l-0.4,0.1l-0.4,0.2
		l-0.2,0.2L36,12.2l-0.2,0.3l-0.1,0.3l-0.2,0.3l-0.1,0.4v0.4l-0.1,0.4v2.3l0.1,0.6v1l0.1,0.5v1l0.1,0.4V21l-0.1,0.4v0.5l-0.1,0.3
		l-0.1,0.4l-0.2,0.3l-0.2,0.3l-0.2,0.2l-0.3,0.2l-0.1,0.1l-0.1,0.1h-0.1L34,23.9h-0.1L33.8,24l-0.2,0.1h-0.8L32.6,24h-0.3l-0.1-0.1
		H31L30.9,24l-0.1,0.1l-0.2,0.2l-0.1,0.2v0.2L30.4,25l-0.5,1.2l-0.5,1.3l-0.2,0.4l-0.1,0.3l-0.2,0.4l-0.3,0.3l-0.2,0.4l-0.2,0.3
		L27.9,30l-0.3,0.3l-0.3,0.2L27,30.7L26.7,31l-0.4,0.2l-0.4,0.2l-0.4,0.1L25,31.6l-0.6,0.1l0.5-0.4l0.4-0.4l0.4-0.3l0.3-0.3l0.2-0.4
		l0.2-0.4l0.2-0.3l0.2-0.4l0.1-0.4l0.1-0.3v-0.4l0.1-0.3l0.1-0.4v-0.2l0.1-0.3v-0.4l0.1-0.3l0.1-0.4v-0.3l0.1-0.3l0.1-0.4l0.2-0.3
		l0.2-0.3l0.2-0.4l0.2-0.2l0.3-0.4l0.4-0.3l0.3-0.4l0.4-0.3l0.5-0.4l0.5-0.3l0.6-0.4h-0.3l-0.3-0.1h-1l-0.4,0.1h-0.4l-0.5,0.1
		l-0.4,0.1L27.8,21l-0.5,0.1L27,21.2l-0.5,0.1l-0.4,0.1l-0.5,0.1l-0.4,0.1l-0.4,0.1h-0.4L24,21.8h-0.4l-0.2-0.1h-0.3l-0.2-0.1
		l-0.2-0.1l-0.2-0.2l-0.2-0.2l-0.1-0.2v-0.7l0.1-0.3l0.1-0.5l0.2-0.6V19h0.1v0.1l0.1,0.1v0.1h0.1v0.1H23l0.1,0.1h0.1l0.1,0.1h0.3
		v0.1h0.2l0.1-0.1h0.3l0.1-0.1h0.1l0.1-0.1l0.2-0.1l0.2-0.1L25,19l0.2-0.1l0.1-0.2v-0.1l0.1-0.1V18l-0.1-0.1v-0.1l-0.1-0.1l-0.1-0.1
		L25,17.4l-0.1-0.1l-0.1-0.1h-0.1l-0.1-0.1l-0.2-0.2l-0.1-0.1l-0.1-0.1v-0.1h-0.1v-0.2h0.8l0.2-0.1h1l0.2,0.1h1.1l0.2,0.1h0.2
		l0.4,0.1l0.4,0.1l0.5,0.1l0.5,0.1l0.5,0.1l0.4,0.1L23.3,13l0.1-0.1l0.1-0.1l0.1-0.1v-0.1l0.1-0.1l0.2-0.1l0.2-0.1l0.2-0.2l0.1-0.1
		l0.3-0.1l0.2-0.2l0.2-0.2l0.3-0.1l0.3-0.2l0.3-0.1l0.3-0.2l0.3-0.1l0.3-0.2l0.3-0.1l0.3-0.2l0.4-0.1l0.4-0.1l0.4-0.1l0.5-0.1
		l0.4-0.1l0.5-0.1l0.4-0.1h0.4l0.5-0.1H33l0.8,0.1l0.7,0.1l0.8,0.1l0.8,0.1l0.7,0.3l0.7,0.3l0.7,0.2l0.8,0.4l0.6,0.3l0.7,0.4
		l0.6,0.4l0.6,0.5l0.6,0.4l0.6,0.5l0.5,0.5l0.6,0.6l0.4,0.6l0.4,0.6l0.5,0.6l0.4,0.7l0.4,0.7l0.3,0.6l0.4,0.8l0.3,0.6l0.2,0.8
		l0.2,0.7l0.2,0.8l0.1,0.8l0.1,0.7l0.1,0.8v2.2l-0.1,0.4l-0.1,0.6l-0.1,0.6l-0.2,0.5l-0.2,0.6l-0.2,0.5l-0.2,0.5l-0.3,0.5l-0.3,0.5
		l-0.3,0.5l-0.3,0.5l-0.3,0.5l-0.5,0.5l-0.3,0.4l-0.3,0.5l-0.5,0.4l-0.4,0.5l-0.5,0.4L42.3,36l-0.5,0.5l-0.5,0.4l-0.4,0.3l-0.6,0.3
		l-0.5,0.4l-0.5,0.3l-0.6,0.3l-0.5,0.3l-0.6,0.3l-0.4,0.3l-0.6,0.3L36,39.9z"/>
	<path class="st2" d="M36,39.9l-0.3-0.3l-0.4-0.3L35,39l-0.3-0.3l-0.1-0.1l-0.1-0.1l-0.2-0.2l-0.1-0.1l-0.1-0.1L34,38v-0.2l-0.1-0.1
		l-0.1-0.2l-0.2-0.1l-0.1-0.2h-0.1L33.3,37l-0.1-0.1l-0.1-0.2v-0.2L33,36.4l-0.1-0.3l-0.1-0.2l-0.1-0.2l-0.1-0.2l-0.1-0.3V35
		l-0.1-0.3l-0.1-0.4l-0.1-0.4l-0.1-0.3v-0.4L32,32.8v-1l0.1-0.3v-0.6l0.1-0.2v-0.5l0.1-0.5l0.1-0.3v-1.6l-0.1-0.3v-0.3l-0.1-0.3
		l-0.1-0.2l-0.2-0.3l-0.2-0.3l-0.2-0.4l-0.2-0.3L31.1,25l0.3,0.1h0.3l0.3,0.1l0.2,0.2l0.3,0.1l0.2,0.2l0.2,0.1l0.2,0.2l0.2,0.2
		l0.1,0.2l0.1,0.2l0.2,0.2l0.1,0.2l0.1,0.2l0.1,0.3v0.3l0.1,0.3v0.3l0.1,0.2l0.1,0.3v0.4l0.1,0.3v0.3l0.1,0.3v0.2l0.1,0.4v0.3
		l0.1,0.3l0.1,0.3v0.4l0.1,0.3l0.1,0.3l0.1,0.2v0.2l0.1,0.2l0.1,0.2l0.1,0.2v0.1l0.1,0.2l0.1,0.1l0.1,0.2l0.1,0.1l0.1,0.1l0.2,0.2
		l0.1,0.1l0.1,0.1l0.2,0.1l0.1,0.1l0.2,0.1l0.2,0.1l0.2,0.1l0.2,0.2h0.1l0.3,0.1l0.2,0.1l0.3,0.1l0.3,0.1h0.2l0.3,0.1l0.4,0.1
		l0.3,0.1l0.4,0.1h0.3l0.4,0.1l-0.3-0.2L40.4,36l-0.3-0.2l-0.3-0.3l-0.2-0.3L39.3,35l-0.2-0.3l-0.2-0.3l-0.2-0.2l-0.2-0.3l-0.2-0.2
		l-0.2-0.2l-0.2-0.3L37.8,33l-0.2-0.3l-0.1-0.2l-0.1-0.2L37.3,32l-0.1-0.2l-0.1-0.2L37,31.4v-0.1l-0.1-0.2V31l-0.1-0.1v-0.3h0.3
		l0.2,0.2l0.2,0.1l0.2,0.1l0.2,0.1l0.2,0.1l0.2,0.2l0.3,0.1l0.2,0.1l0.2,0.1l0.2,0.1l0.2,0.1l0.2,0.1l0.2,0.1H40l0.3,0.1l0.2,0.1
		h0.2l0.2,0.1l0.1,0.1h0.2l0.2,0.1h0.2l0.3,0.1h0.4l0.2,0.1h0.7l0.3,0.1H44l-0.5-0.2l-0.4-0.2l-0.4-0.2l-0.4-0.2L42,32l-0.4-0.2
		l-0.3-0.2L41,31.4l-0.2-0.2L40.5,31l-0.3-0.2l-0.3-0.2l-0.2-0.2l-0.3-0.1l-0.2-0.2L39,29.9l-0.2-0.1l-0.2-0.2l-0.2-0.2l-0.2-0.2
		l-0.1-0.3l-0.2-0.1l-0.1-0.2l-0.1-0.2l-0.2-0.2L37.4,28v-0.2l-0.1-0.2l-0.1-0.2l-0.1-0.2L37,27l-0.1-0.2l0.5,0.6l0.5,0.5l0.5,0.5
		l0.5,0.3l0.5,0.4l0.5,0.3l0.5,0.2l0.5,0.1l0.3,0.2h0.5l0.5,0.1H43l0.4-0.1l0.4-0.1l0.4-0.1l0.2-0.1l0.3-0.2l0.4-0.2l0.3-0.2
		l0.3-0.2l0.2-0.2l0.2-0.2l0.3-0.2l0.2-0.2l0.1-0.2l0.1-0.2l0.1-0.2l0.1-0.2v-0.1l0.1-0.2L47,26.8l-0.1-0.2l-0.1-0.3L46.6,26
		l-0.2-0.2l-0.1-0.2l-0.2-0.2l-0.2-0.1l-0.2-0.1l-0.2-0.1L45.3,25h-1.1L44,25.1l-0.3,0.1l-0.2,0.1l-0.3,0.1L43,25.5l-0.3,0.1
		l-0.2,0.2l-0.3,0.1L42,26.1l-0.3,0.2l-0.2,0.2l-0.3,0.1L41,26.8l-0.2,0.1l-0.2,0.2l-0.2,0.2l-0.2,0.2l0.1-0.2l0.2-0.2l0.1-0.2
		l0.2-0.2l0.1-0.2l0.2-0.2l0.1-0.2l0.2-0.2l0.2-0.2l0.2-0.2l0.2-0.1l0.1-0.2l0.2-0.2l0.2-0.2l0.2-0.1l0.2-0.2l0.2-0.2l0.2-0.1
		l0.2-0.2l0.2-0.1l0.2-0.2l0.2-0.1l0.2-0.1l0.2-0.2h0.2l0.3-0.1l0.2-0.2l0.3-0.1l0.2-0.1l0.3-0.1l0.2-0.2l0.3-0.1l-0.4,0.1h-0.6
		l-0.3,0.1l-0.4,0.1h-0.3l-0.2,0.1L44,22.9L43.7,23l-0.3,0.1l-0.3,0.1l-0.2,0.1h-0.3l-0.2,0.1l-0.3,0.1l-0.2,0.2l-0.3,0.1l-0.2,0.1
		l-0.2,0.2l-0.3,0.1l-0.1,0.1l-0.2,0.2l-0.2,0.1l-0.2,0.2L40,24.9l-0.1,0.2l-0.2,0.1l-0.1,0.2l-0.2,0.1l-0.1,0.2l-0.1,0.1L39.1,26
		H39v0.1h-0.3v-0.4l0.1-0.1v-0.2l0.1-0.1l0.1-0.1l0.1-0.1v-0.2l0.1-0.1l0.1-0.1l0.1-0.1l0.1-0.1v-0.1l0.1-0.1l0.1-0.1l0.1-0.1
		l0.1-0.1v-0.1l0.1-0.1l0.1-0.1l0.1-0.1l0.1-0.1l0.1-0.1l0.1-0.1h0.1l0.2-0.2l0.1-0.2l0.2-0.1l0.2-0.2l0.3-0.2l0.3-0.2l0.3-0.2
		l0.3-0.3l0.1-0.1l0.2-0.1l0.1-0.1l0.2-0.1l0.1-0.1l0.2-0.1l0.1-0.2l0.1-0.1l0.2-0.1l0.1-0.1l0.1-0.2l0.1-0.2l0.2-0.1v-0.2h0.1
		l0.1-0.2l0.1-0.1l0.1-0.2l0.1-0.2l0.1-0.2l0.1-0.2l0.1-0.2l0.1-0.3l0.1-0.2l-0.4,0.4l-0.4,0.4l-0.2,0.4L44,19.6l-0.3,0.2L43.5,20
		l-0.3,0.2L43,20.4l-0.3,0.2l-0.2,0.1l-0.2,0.2L42.1,21l-0.2,0.1l-0.2,0.1l-0.2,0.1l-0.2,0.1h-0.2l-0.2,0.1l-0.1,0.1l-0.2,0.1
		l-0.2,0.2L40.1,22l-0.2,0.2l-0.3,0.1l-0.3,0.2l-0.2,0.2L38.8,23l-0.4,0.3l-0.3,0.2l-0.4,0.3l-0.3,0.4L37,24.6l0.1-0.4l0.2-0.4
		l0.1-0.3l0.2-0.3l0.2-0.3l0.1-0.3l0.2-0.2l0.2-0.3l0.3-0.2l0.1-0.2l0.2-0.2l0.2-0.2l0.2-0.1l0.2-0.2l0.2-0.1l0.2-0.1l0.2-0.2
		l0.2-0.1l0.2-0.2l0.2-0.1l0.1-0.2l0.1-0.1l0.2-0.1l0.1-0.2l0.2-0.2l0.1-0.2l0.1-0.3l0.2-0.2l0.1-0.3l0.1-0.3v-0.4l0.1-0.3l-0.2,0.3
		l-0.1,0.2l-0.2,0.2l-0.2,0.2l-0.2,0.2l-0.1,0.2l-0.2,0.1v0.1l-0.2,0.2l-0.1,0.1h-0.1l-0.2,0.1l-0.1,0.1h-0.1l-0.2,0.1h-0.1
		l-0.1,0.1h-0.2l-0.1,0.1l-0.2,0.1h-0.1l-0.2,0.1h-0.1L38.6,20l-0.2,0.1l-0.2,0.1L38,20.4l-0.2,0.2l-0.2,0.1l-0.2,0.2l-0.2,0.3
		L37,21.4l-0.2-0.3v-0.4l-0.1-0.4v-0.4l0.1-0.3v-0.4l0.1-0.5l0.1-0.4l0.1-0.4l0.1-0.4l0.1-0.5l0.1-0.4l0.2-0.7l0.3-0.8l0.1-0.4
		l0.1-0.3l0.1-0.4l0.1-0.3l0.1-0.3l0.1-0.4v-0.6l-0.1-0.3L38.3,12l-0.2-0.2L38,11.6l-0.2-0.1l-0.3-0.1h-0.2l-0.4,0.1l-0.4,0.2
		l-0.2,0.2L36,12.2l-0.2,0.3l-0.1,0.3l-0.2,0.3l-0.1,0.4v0.4l-0.1,0.4v2.3l0.1,0.6v1l0.1,0.5v1l0.1,0.4V21l-0.1,0.4v0.5l-0.1,0.3
		l-0.1,0.4l-0.2,0.3l-0.2,0.3l-0.2,0.2l-0.3,0.2l-0.1,0.1l-0.1,0.1h-0.1L34,23.9h-0.1L33.8,24l-0.2,0.1h-0.8L32.6,24h-0.3l-0.1-0.1
		H31L30.9,24l-0.1,0.1l-0.2,0.2l-0.1,0.2v0.2L30.4,25l-0.5,1.2l-0.5,1.3l-0.2,0.4l-0.1,0.3l-0.2,0.4l-0.3,0.3l-0.2,0.4l-0.2,0.3
		L27.9,30l-0.3,0.3l-0.3,0.2L27,30.7L26.7,31l-0.4,0.2l-0.4,0.2l-0.4,0.1L25,31.6l-0.6,0.1l0.5-0.4l0.4-0.4l0.4-0.3l0.3-0.3l0.2-0.4
		l0.2-0.4l0.2-0.3l0.2-0.4l0.1-0.4l0.1-0.3v-0.4l0.1-0.3l0.1-0.4v-0.2l0.1-0.3v-0.4l0.1-0.3l0.1-0.4v-0.3l0.1-0.3l0.1-0.4l0.2-0.3
		l0.2-0.3l0.2-0.4l0.2-0.2l0.3-0.4l0.4-0.3l0.3-0.4l0.4-0.3l0.5-0.4l0.5-0.3l0.6-0.4h-0.3l-0.3-0.1h-1l-0.4,0.1h-0.4l-0.5,0.1
		l-0.4,0.1L27.8,21l-0.5,0.1L27,21.2l-0.5,0.1l-0.4,0.1l-0.5,0.1l-0.4,0.1l-0.4,0.1h-0.4L24,21.8h-0.4l-0.2-0.1h-0.3l-0.2-0.1
		l-0.2-0.1l-0.2-0.2l-0.2-0.2l-0.1-0.2v-0.7l0.1-0.3l0.1-0.5l0.2-0.6V19h0.1v0.1l0.1,0.1v0.1h0.1v0.1H23l0.1,0.1h0.1l0.1,0.1h0.3
		v0.1h0.2l0.1-0.1h0.3l0.1-0.1h0.1l0.1-0.1l0.2-0.1l0.2-0.1L25,19l0.2-0.1l0.1-0.2v-0.1l0.1-0.1V18l-0.1-0.1v-0.1l-0.1-0.1l-0.1-0.1
		L25,17.4l-0.1-0.1l-0.1-0.1h-0.1l-0.1-0.1l-0.2-0.2l-0.1-0.1l-0.1-0.1v-0.1h-0.1v-0.2h0.8l0.2-0.1h1l0.2,0.1h1.1l0.2,0.1h0.2
		l0.4,0.1l0.4,0.1l0.5,0.1l0.5,0.1l0.5,0.1l0.4,0.1L17.3,9.6l-6.5,5.2L10.7,15l-0.1,0.2l-0.1,0.3l-0.1,0.3L10.3,16l-0.1,0.3v0.2
		l-0.1,0.3v0.3L10,17.4v0.3l-0.1,0.2v0.9l-0.1,0.3V22l0.1,0.4v0.3l0.2,1.1l0.2,1.1l0.2,1l0.3,0.9l0.3,1l0.3,0.9l0.4,1l0.3,0.7
		l0.5,0.8L13,32l0.4,0.7l0.5,0.8l0.5,0.5l0.5,0.7l0.6,0.6l0.6,0.6l0.6,0.5l0.6,0.6l0.7,0.3l0.7,0.5l0.8,0.4l0.6,0.4L21,39l0.8,0.3
		l0.8,0.3l0.9,0.3l0.8,0.3l1,0.2l0.9,0.2l0.9,0.2l1,0.2l1.1,0.1h0.4h-0.4h1.9l0.2-0.1h0.6l0.2-0.1h0.4l0.2-0.1H33l0.2-0.1h0.2
		l0.2-0.1H34l0.1-0.1h0.2l0.2-0.1h0.2l0.2-0.1l0.3-0.1l0.2-0.1h0.2l0.2-0.1L36,39.9z"/>
</g>
<g class="st3">
	<path class="st4" d="M63.3,19.7h-3.8L58.7,22h-1.8l3.8-9.8h1.5L66,22h-1.8L63.3,19.7z M60,18.3h2.9l-1.4-4
		C61.6,14.3,60,18.3,60,18.3z M68.1,14.7l0.1,0.9c0.6-0.6,1.2-1,2.1-1c1.5,0,2.3,0.9,2.3,2.6V22H71v-4.7c0-0.5-0.1-0.8-0.3-1
		c-0.2-0.2-0.6-0.3-1-0.3c-0.6,0-1.1,0.3-1.4,1v5h-1.6v-7.3C66.5,14.7,68,14.7,68.1,14.7z M85.3,18.8c-0.1,1.1-0.5,1.8-1.2,2.5
		c-0.7,0.6-1.5,1-2.6,1c-0.8,0-1.4-0.2-2.1-0.6c-0.6-0.4-1-1-1.4-1.6c-0.4-0.7-0.5-1.4-0.5-2.4v-1c0-1,0.2-1.8,0.5-2.5
		s0.8-1.2,1.4-1.6c0.6-0.3,1.3-0.6,2.1-0.6c1,0,1.9,0.3,2.6,1c0.6,0.6,1,1.4,1.1,2.5h-1.7c-0.1-0.7-0.3-1.2-0.6-1.5
		c-0.4-0.3-0.9-0.5-1.4-0.5c-0.8,0-1.3,0.3-1.7,0.9C79.2,15,79,15.7,79,16.8v0.9c0,1.1,0.2,1.8,0.6,2.5c0.4,0.6,1,0.9,1.7,0.9
		s1.2-0.2,1.5-0.4c0.3-0.3,0.6-0.8,0.6-1.4h1.8C85.2,19.2,85.2,18.8,85.3,18.8z M91.1,21.2c-0.5,0.6-1.2,0.9-2,0.9s-1.4-0.2-1.8-0.7
		c-0.5-0.5-0.6-1.1-0.6-2v-4.6h1.6v4.7c0,1,0.3,1.4,1.1,1.4c0.8,0,1.3-0.3,1.6-0.9v-5.3h1.6V22H91C91,21.9,91.1,21.2,91.1,21.2z
		 M94.1,18.3c0-0.7,0.2-1.3,0.4-1.9c0.3-0.6,0.7-1,1.2-1.3s1.1-0.5,1.8-0.5c1,0,1.8,0.4,2.4,1c0.6,0.6,1,1.4,1,2.5v0.4
		c0,0.7-0.2,1.3-0.4,1.9c-0.3,0.6-0.7,1-1.2,1.3s-1.1,0.5-1.8,0.5c-1,0-1.8-0.3-2.5-1C94.3,20.4,94.1,19.4,94.1,18.3z M95.6,18.4
		c0,0.8,0.2,1.3,0.5,1.8c0.3,0.4,0.8,0.6,1.2,0.6c0.6,0,1-0.2,1.2-0.6c0.3-0.4,0.5-1.1,0.5-1.8c0-0.7-0.2-1.3-0.5-1.8
		S97.7,16,97.3,16c-0.6,0-1,0.2-1.2,0.6S95.6,17.6,95.6,18.4z M103.7,14.7l0.1,0.9c0.6-0.6,1.2-1,2.1-1c1.5,0,2.3,0.9,2.3,2.6V22
		h-1.6v-4.7c0-0.5-0.1-0.8-0.3-1c-0.2-0.2-0.6-0.3-1-0.3c-0.6,0-1.1,0.3-1.4,1v5h-1.6v-7.3C102.1,14.7,103.6,14.7,103.7,14.7z
		 M109.6,18.3c0-1.1,0.3-2,0.8-2.7s1.2-1,2.1-1s1.4,0.3,1.9,0.9l0.1-0.7h1.4v7c0,1-0.3,1.7-1,2.2c-0.6,0.6-1.4,0.9-2.4,0.9
		c-0.6,0-1.1-0.2-1.5-0.4s-1-0.5-1.2-0.9l0.8-1c0.5,0.6,1.1,1,1.8,1c0.6,0,1-0.2,1.2-0.4c0.3-0.3,0.5-0.7,0.5-1.3v-0.5
		c-0.5,0.6-1.1,0.8-1.8,0.8c-0.9,0-1.5-0.3-2.1-1.1C109.7,20.3,109.6,19.4,109.6,18.3z M111.2,18.4c0,0.7,0.2,1.3,0.4,1.8
		c0.3,0.4,0.7,0.6,1.2,0.6c0.6,0,1.1-0.3,1.4-0.9v-3.3c-0.3-0.6-0.8-0.9-1.4-0.9s-1,0.2-1.2,0.6C111.3,16.9,111.2,17.6,111.2,18.4z"
		/>
</g>
<g>
	<path class="st4" d="M56.8,35.8V25.2H59V34h5.4v1.8H56.8z"/>
	<path class="st4" d="M65.9,27v-1.9h2V27H65.9z M65.9,35.8v-7.7h2v7.7H65.9z"/>
	<path class="st4" d="M69.9,35.8V25.1h2V29c0.6-0.7,1.4-1.1,2.2-1.1c0.9,0,1.7,0.3,2.3,1c0.6,0.7,0.9,1.7,0.9,2.9
		c0,1.3-0.3,2.3-0.9,3c-0.6,0.7-1.4,1.1-2.3,1.1c-0.4,0-0.9-0.1-1.3-0.3c-0.4-0.2-0.8-0.5-1.1-1v1.1H69.9z M71.9,31.8
		c0,0.8,0.1,1.4,0.4,1.8c0.4,0.5,0.8,0.8,1.4,0.8c0.5,0,0.8-0.2,1.2-0.6c0.3-0.4,0.5-1,0.5-1.8c0-0.9-0.2-1.5-0.5-1.9
		c-0.3-0.4-0.7-0.6-1.2-0.6c-0.5,0-0.9,0.2-1.2,0.6S71.9,31,71.9,31.8z"/>
	<path class="st4" d="M81.1,35.8h-2v-7.7h1.9v1.1c0.3-0.5,0.6-0.9,0.9-1c0.3-0.2,0.6-0.2,0.9-0.2c0.5,0,0.9,0.1,1.3,0.4l-0.6,1.8
		c-0.3-0.2-0.7-0.3-1-0.3c-0.3,0-0.5,0.1-0.7,0.2c-0.2,0.2-0.4,0.4-0.5,0.9c-0.1,0.4-0.2,1.3-0.2,2.6V35.8z"/>
	<path class="st4" d="M86.4,30.4l-1.9-0.3c0.2-0.7,0.6-1.3,1.1-1.7c0.5-0.4,1.3-0.5,2.3-0.5c0.9,0,1.6,0.1,2,0.3
		c0.4,0.2,0.8,0.5,0.9,0.8c0.2,0.3,0.3,0.9,0.3,1.8l0,2.4c0,0.7,0,1.2,0.1,1.5c0.1,0.3,0.2,0.7,0.4,1h-2c-0.1-0.1-0.1-0.3-0.2-0.6
		c0-0.1-0.1-0.2-0.1-0.2c-0.3,0.3-0.7,0.6-1.1,0.8c-0.4,0.2-0.8,0.3-1.3,0.3c-0.8,0-1.4-0.2-1.9-0.6s-0.7-1-0.7-1.6
		c0-0.4,0.1-0.8,0.3-1.2c0.2-0.3,0.5-0.6,0.9-0.8c0.4-0.2,0.9-0.3,1.6-0.5c1-0.2,1.6-0.3,2-0.5v-0.2c0-0.4-0.1-0.7-0.3-0.8
		s-0.6-0.3-1.1-0.3c-0.4,0-0.6,0.1-0.9,0.2C86.7,29.8,86.5,30.1,86.4,30.4z M89.2,32.1c-0.3,0.1-0.7,0.2-1.2,0.3
		c-0.6,0.1-0.9,0.2-1.1,0.4c-0.3,0.2-0.4,0.4-0.4,0.7c0,0.3,0.1,0.5,0.3,0.7c0.2,0.2,0.5,0.3,0.8,0.3c0.4,0,0.7-0.1,1.1-0.4
		c0.2-0.2,0.4-0.4,0.5-0.7c0.1-0.2,0.1-0.5,0.1-1V32.1z"/>
	<path class="st4" d="M95.1,35.8h-2v-7.7H95v1.1c0.3-0.5,0.6-0.9,0.9-1c0.3-0.2,0.6-0.2,0.9-0.2c0.5,0,0.9,0.1,1.3,0.4l-0.6,1.8
		c-0.3-0.2-0.7-0.3-1-0.3c-0.3,0-0.5,0.1-0.7,0.2c-0.2,0.2-0.4,0.4-0.5,0.9c-0.1,0.4-0.2,1.3-0.2,2.6V35.8z"/>
	<path class="st4" d="M98,28.1h2.2l1.8,5.5l1.8-5.5h2.1l-2.7,7.4l-0.5,1.3c-0.2,0.5-0.4,0.8-0.5,1c-0.2,0.2-0.3,0.4-0.6,0.6
		c-0.2,0.1-0.5,0.3-0.8,0.3c-0.3,0.1-0.7,0.1-1,0.1c-0.4,0-0.8,0-1.2-0.1l-0.2-1.6c0.3,0.1,0.6,0.1,0.9,0.1c0.5,0,0.8-0.1,1.1-0.4
		c0.2-0.3,0.4-0.6,0.5-1.1L98,28.1z"/>
</g>
</svg>
