<svg version="1.1" id="Layer_1" xmlns="http://www.w3.org/2000/svg" x="0" y="0" width="60" height="60" viewBox="0 0 60 60" xml:space="preserve"><style>.st1{fill:#fff}</style><radialGradient id="SVGID_1_" cx="21.925" cy="51.763" r="68.903" gradientTransform="matrix(.9786 -.2057 .1365 .6491 -6.595 22.674)" gradientUnits="userSpaceOnUse"><stop offset="0" stop-color="#fed576"/><stop offset=".263" stop-color="#f47133"/><stop offset=".609" stop-color="#bc3081"/><stop offset="1" stop-color="#4c63d2"/></radialGradient><path d="M49.3 58.6h-38c-4.9 0-9-4.1-9-9V10.4c0-5 4.1-9 9-9h38c5 0 9 4.1 9 9v39.3c0 4.9-4 8.9-9 8.9z" fill="url(#SVGID_1_)"/><path class="st1" d="M40.5 8.8H20c-6.3 0-11.4 5.1-11.4 11.4v19.6c0 6.3 5.1 11.4 11.4 11.4h20.5c6.3 0 11.4-5.1 11.4-11.4V20.2c.1-6.3-5-11.4-11.4-11.4zM48 39.5c0 4.3-3.6 7.9-7.9 7.9H20.3c-4.3 0-7.9-3.6-7.9-7.9v-19c0-4.3 3.6-7.9 7.9-7.9h19.8c4.3 0 7.9 3.6 7.9 7.9v19z"/><path class="st1" d="M30.3 19.1c-6 0-10.9 4.9-10.9 10.9s4.9 10.9 10.9 10.9S41.1 36 41.1 30s-4.8-10.9-10.8-10.9zm0 17.9c-3.9 0-7-3.1-7-7s3.1-7 7-7 7 3.1 7 7c.1 3.9-3.1 7-7 7z"/><circle class="st1" cx="41.8" cy="18.5" r="2.5"/></svg>