<svg version="1.1" id="Layer_1" xmlns="http://www.w3.org/2000/svg" x="0" y="0" width="50" height="50" viewBox="0 0 50 50" xml:space="preserve"><style>.st0{fill:#fff}</style><path id="path6_1_" class="st0" d="M33 24.2c0-3.9 3.2-5.8 3.4-5.9-1.8-2.7-4.7-3-5.7-3.1-2.4-.3-4.7 1.4-5.9 1.4-1.2 0-3.1-1.4-5.1-1.4-2.6 0-5 1.5-6.4 3.9-2.9 4.9-.8 11.9 1.8 15.7 1.3 1.9 2.9 4 4.9 3.9s2.7-1.3 5.1-1.3 3.1 1.3 5.1 1.2c2.1 0 3.5-1.9 4.7-3.8 1.5-2.2 2.1-4.3 2.2-4.4 0 .1-4.1-1.5-4.1-6.2z"/><path id="path8_1_" class="st0" d="M29.1 12.7c1.1-1.3 1.8-3.1 1.6-5-1.5.1-3.5 1.1-4.6 2.4-1 1.1-1.9 3-1.6 4.8 1.7.1 3.5-.9 4.6-2.2z"/></svg>