<svg xmlns="http://www.w3.org/2000/svg" xmlns:xlink="http://www.w3.org/1999/xlink" x="0px" y="0px" width="100px" height="100px" viewBox="0 0 100 100">
<path fill="#0A66C2" d="M87.9,5.7H12.3c-3.6,0-6.7,2.9-6.7,6.4V88c0,3.5,2,6.4,5.6,6.4h75.6c3.6,0,7.5-2.9,7.5-6.4V12
C94.3,8.5,91.5,5.7,87.9,5.7z M31,81.7H18.3V39.4H31V81.7z M24.7,32.6c-4.4,0-7.9-3.5-7.9-7.9c0-4.4,3.5-7.9,7.9-7.9
s7.9,3.5,7.9,7.9C32.6,29,29,32.6,24.7,32.6z M81.7,81.7H69V60.5c0-5.6-2.2-10.5-7.5-10.5c-6.4,0-9.4,4.3-9.4,11.4v20.3H39.4V39.4
h11.9v6.1h0.1c1.8-3.3,7.2-6.6,13.8-6.6c12.8,0,16.3,6.8,16.3,19.3V81.7z"/>
<rect x="18.3" y="39.4" fill="#FFFFFF" width="12.7" height="42.2"/>
<circle fill="#FFFFFF" cx="24.7" cy="24.7" r="7.9"/>
<path fill="#FFFFFF" d="M65.4,38.9c-6.6,0-12,3.3-13.8,6.6h-0.1v-6.1H39.4v42.2h12.7V61.4c0-7.1,3-11.4,9.4-11.4
c5.2,0,7.5,4.9,7.5,10.5v21.1h12.7V58.2C81.7,45.7,78.1,38.9,65.4,38.9z"/>
</svg>
