<svg version="1.1" id="Layer_1" xmlns="http://www.w3.org/2000/svg" x="0" y="0" width="60" height="60" viewBox="0 0 60 60" xml:space="preserve"><path d="M49.3 58.8h-38c-4.9 0-9-4-9-9V10.5c0-4.9 4.1-9 9-9h38c5 0 9 4.1 9 9v39.3c0 4.9-4.1 9-9 9z" fill="#bc0017"/><path d="M30.5 9.6C19.2 9.6 10 18.8 10 30.1s9.2 20.5 20.5 20.5S51 41.4 51 30.1 41.8 9.6 30.5 9.6zm2 27.4c-1.9-.1-2.6-1.1-4.1-2-.8 4.2-1.8 8.2-4.7 10.4C22.8 39 25 34.3 26 29.2c-1.8-3 .2-8.9 3.9-7.4 4.5 1.8-3.9 11 1.8 12.1 6 1.2 8.4-10.3 4.7-14.1-5.3-5.4-15.5-.1-14.3 7.6.3 1.9 2.3 2.5.8 5.1-3.4-.8-4.4-3.4-4.3-7 .2-5.9 5.3-10 10.4-10.6 6.4-.7 12.5 2.4 13.3 8.4.9 6.8-2.9 14.2-9.8 13.7z" fill="#fff"/></svg>