<svg version="1.1" id="Capa_1" xmlns="http://www.w3.org/2000/svg" x="0" y="0" width="80" height="80" viewBox="0 0 80 80" xml:space="preserve"><style>.st0{fill:#fff}</style><path class="st0" d="M74.7 57.9c-2.7 5.3-6.7 10-11.5 13.5-.7.5-1.7.4-2.2-.3s-.4-1.7.3-2.2c4.4-3.3 8.1-7.6 10.6-12.4 2.6-5.1 4-10.6 4-16.4C75.8 20.2 59.8 4.2 40 4.2S4.2 20.2 4.2 40s16 35.8 35.8 35.8c.9 0 1.6.7 1.6 1.6S40.9 79 40 79C18.5 79 1 61.5 1 40S18.5 1 40 1s39 17.5 39 39c0 6.2-1.5 12.4-4.3 17.9z"/><path class="st0" d="M30 58.1c-.5-.3-.8-.8-.8-1.4V21.9c0-.9.7-1.6 1.6-1.6.9 0 1.6.7 1.6 1.6v32l23.5-14-17.3-11.1c-.7-.5-.9-1.5-.5-2.2.5-.7 1.5-.9 2.2-.5l19.4 12.5c.5.3.7.8.7 1.4s-.3 1.1-.8 1.3l-28 16.8c-.5.3-1.1.3-1.6 0z"/></svg>