<svg version="1.1" id="Layer_1" xmlns="http://www.w3.org/2000/svg" x="0" y="0" width="60" height="60" viewBox="0 0 60 60" xml:space="preserve"><style>.st0{fill:#6f6f6f}</style><path class="st0" d="M18.2 7.3h24.1v7.1H18.2zm1.7 26.8h20.6V52H19.9z"/><path class="st0" d="M51.7 16.3h-43c-.5 0-.9.4-.9.9V44c0 .5.4.9.9.9h9.4V32.3h24v12.5h9.4c.5 0 .9-.4.9-.9V17.2c.1-.5-.2-.9-.7-.9zM16.5 27c-.9 0-1.7-.8-1.7-1.8s.8-1.8 1.7-1.8c.9 0 1.7.8 1.7 1.8s-.8 1.8-1.7 1.8zm5.1 0c-.9 0-1.7-.8-1.7-1.8s.8-1.8 1.7-1.8 1.7.8 1.7 1.8-.7 1.8-1.7 1.8z"/></svg>