<svg version="1.1" id="Layer_1" xmlns="http://www.w3.org/2000/svg" x="0" y="0" width="60" height="60" viewBox="0 0 60 60" xml:space="preserve"><path d="M45.7 8.7c-3.5 0-6.3 2.9-6.3 6.5 0 .6.1 1.2.3 1.8l-18.4 8c-1.1-2-3.1-3.3-5.4-3.3-3.5 0-6.3 2.9-6.3 6.5s2.8 6.5 6.3 6.5c1.8 0 3.4-.8 4.6-2.1l11.8 8.8c-.5.9-.7 1.9-.7 3 0 3.6 2.8 6.5 6.3 6.5s6.3-2.9 6.3-6.5-2.8-6.5-6.3-6.5c-1.8 0-3.5.8-4.6 2.2l-11.8-8.8c.5-.9.8-2 .8-3.1 0-.6-.1-1.2-.3-1.7l18.4-8c1.1 1.9 3.1 3.2 5.4 3.2 3.5 0 6.3-2.9 6.3-6.5-.1-3.6-2.9-6.5-6.4-6.5" fill="#6f6f6f"/></svg>