<?xml version="1.0" encoding="utf-8"?>
<!-- Generator: Adobe Illustrator 23.0.1, SVG Export Plug-In . SVG Version: 6.00 Build 0)  -->
<svg version="1.1" id="Layer_1" xmlns="http://www.w3.org/2000/svg" xmlns:xlink="http://www.w3.org/1999/xlink" x="0px" y="0px"
	 width="100px" height="75px" viewBox="0 0 100 75" style="enable-background:new 0 0 100 75;" xml:space="preserve">
<path style="fill:#FF0000;" d="M86.7,19.3c-0.9-3.3-3.5-5.9-6.8-6.8c-6-1.6-30-1.6-30-1.6s-24,0-30,1.6c-3.2,0.9-5.9,3.5-6.8,6.8
	c-1.6,6-1.6,18.4-1.6,18.4s0,12.5,1.6,18.4c0.9,3.3,3.5,5.9,6.8,6.8c6.1,1.6,30,1.6,30,1.6s24,0,30-1.6c3.3-0.9,5.9-3.5,6.8-6.8
	c1.6-6,1.6-18.4,1.6-18.4S88.4,25.3,86.7,19.3z"/>
<path style="fill:#FFFFFF;" d="M42.4,49.2l19.9-11.5L42.4,26.3V49.2z"/>
</svg>
