<svg version="1.1" id="Layer_1" xmlns="http://www.w3.org/2000/svg" x="0" y="0" width="60" height="60" viewBox="0 0 60 60" xml:space="preserve"><path d="M49.3 58.8h-38c-4.9 0-9-4-9-9V10.5c0-4.9 4.1-9 9-9h38c5 0 9 4.1 9 9v39.3c0 4.9-4.1 9-9 9z" fill="#dd3c48"/><path d="M49.3 20.4c0-.1 0-.3-.2-.4v-.3c-.5-1.4-1.9-2.5-3.6-2.5h.3s-6.7-1.1-15.6-1.1-15.6 1.1-15.6 1.1h.3c-1.7 0-3.1 1.1-3.6 2.5v.3c0 .2-.2.2-.2.4-.3 1.7-.6 5.2-.6 9.4s.4 7.6.6 9.4c0 .1 0 .3.1.4v.3c.5 1.4 1.9 2.5 3.6 2.5h-.4s6.7 1.1 15.6 1.1 15.6-1.1 15.6-1.1h-.3c1.6 0 3.1-1.1 3.6-2.5v-.3c0-.1.1-.3.1-.4.3-1.7.6-5.2.6-9.4.3-4.2-.1-7.7-.3-9.4zM36 30.7l-8 5.8c-.1.1-.4.1-.5.1-.2 0-.3 0-.4-.2-.3-.1-.5-.5-.5-.8V24c0-.4.3-.6.5-.8.3-.1.6-.1 1.1.1l8 5.8c.3.1.4.5.4.8-.3.3-.4.5-.6.8z" fill="#fff"/></svg>