<svg xmlns="http://www.w3.org/2000/svg" x="0" y="0" width="60" height="60" viewBox="0 0 60 60">
<path display="none" fill="#DD3C48" d="M49.3,58.8h-38c-4.9,0-9-4-9-9V10.5c0-4.9,4.1-9,9-9h38c5,0,9,4.1,9,9v39.3
C58.3,54.7,54.2,58.8,49.3,58.8z"/>
<path display="none" fill="#FFFFFF" d="M49.3,20.4c0-0.1,0-0.3-0.2-0.4v-0.3c-0.5-1.4-1.9-2.5-3.6-2.5h0.3c0,0-6.7-1.1-15.6-1.1
s-15.6,1.1-15.6,1.1h0.3c-1.7,0-3.1,1.1-3.6,2.5V20c0,0.2-0.2,0.2-0.2,0.4c-0.3,1.7-0.6,5.2-0.6,9.4s0.4,7.6,0.6,9.4
c0,0.1,0,0.3,0.1,0.4v0.3c0.5,1.4,1.9,2.5,3.6,2.5h-0.4c0,0,6.7,1.1,15.6,1.1s15.6-1.1,15.6-1.1h-0.3c1.6,0,3.1-1.1,3.6-2.5v-0.3
c0-0.1,0.1-0.3,0.1-0.4c0.3-1.7,0.6-5.2,0.6-9.4C49.9,25.6,49.5,22.1,49.3,20.4z M36,30.7l-8,5.8c-0.1,0.1-0.4,0.1-0.5,0.1
c-0.2,0-0.3,0-0.4-0.2c-0.3-0.1-0.5-0.5-0.5-0.8V24c0-0.4,0.3-0.6,0.5-0.8c0.3-0.1,0.6-0.1,1.1,0.1l8,5.8c0.3,0.1,0.4,0.5,0.4,0.8
C36.3,30.2,36.2,30.4,36,30.7z"/>
<ellipse fill="#FFFFFF" cx="30.4" cy="29.9" rx="27.5" ry="26"/>
<path fill="#FFFFFF" stroke="#0180C7" stroke-width="0.5" stroke-miterlimit="10" d="M50.1,56H10.7c-4.4,0-7.9-3.6-7.9-7.9V11.7
c0-4.4,3.6-7.9,7.9-7.9h39.4c4.4,0,7.9,3.6,7.9,7.9v36.4C58,52.5,54.4,56,50.1,56z"/>
<path fill="#FDFEFE" d="M12.7,49.5c-0.2-0.1-0.4-0.2-0.1-0.4c0.2-0.1,0.3-0.2,0.5-0.3c1.6-1,3-2.1,4-3.8c0.8-1.4,0.7-2.2-0.3-3.2
C11,36.1,8.5,29.3,9.8,21.3c0.7-4.5,2.8-8.5,5.8-11.9c1.8-2.1,4-3.7,6.4-5.1c0.1-0.1,0.4-0.1,0.4-0.3c0-0.1-0.1-0.1-0.2-0.1
c-4,0-8.1-0.1-12.1,0C6.2,4,2.8,7,2.8,11.3c0,12.5,0,25.1,0,37.6c0,3.9,3,7.1,6.8,7.3c3.3,0.1,6.6,0,9.8,0c0.2,0,0.5,0,0.7,0
c5.8,0,11.6,0,17.4,0c4.3,0,8.6,0,13,0c4.1,0,7.3-3.3,7.3-7.3c0-2.3,0-4.7,0-7c0-0.2,0.1-0.4,0-0.5c-0.2,0-0.3,0.2-0.4,0.3
c-2.4,2.4-5.1,4.2-8.1,5.5c-7.4,3.3-14.9,3.5-22.5,0.9c-0.7-0.2-1.4-0.3-2.1-0.1c-1,0.3-2,0.6-3,0.9C18.7,49.7,15.7,50.1,12.7,49.5
z M21.4,29.3c0.2-0.3,0.3-0.4,0.4-0.6c1.6-2,3.1-4,4.7-6c0.5-0.6,0.9-1.2,1.2-1.9c0.3-0.8,0-1.5-0.8-1.8c-0.4-0.1-0.7-0.1-1.1-0.1
c-2.1,0-4.3,0-6.4,0c-0.3,0-0.6,0-0.9,0.1c-0.6,0.2-1,0.7-1,1.2c0,0.6,0.4,1.1,1,1.2c0.3,0.1,0.6,0.1,0.9,0.1c1.3,0,2.6,0,3.9,0
c0.1,0,0.3-0.1,0.4,0.1c-0.1,0.1-0.2,0.3-0.3,0.4c-1.9,2.4-3.7,4.7-5.6,7.1c-0.5,0.6-0.7,1.2-0.4,2c0.3,0.7,1,0.9,1.7,0.9
c0.6,0,1.1,0,1.7,0c1.9,0,3.9,0,5.8,0c1,0,1.6-0.6,1.5-1.6c-0.1-0.8-0.6-1.2-1.6-1.2C24.9,29.3,23.2,29.3,21.4,29.3z M35.3,23
c-1.5-1.3-3.2-1.4-4.8-0.4c-2,1.2-2.7,3-2.4,5.2c0.2,2,1.1,3.7,3.3,4.4c1.3,0.4,2.6,0.3,3.7-0.6c0.3-0.2,0.4-0.2,0.6,0.1
c0.4,0.5,1.1,0.7,1.7,0.5c0.6-0.2,1-0.7,1-1.4c0-2.4,0-4.8,0-7.2c0-1-0.9-1.6-1.9-1.4C35.9,22.3,35.6,22.6,35.3,23z M43.6,27.4
c0,3,2.4,5.3,5.6,5c2.9-0.3,4.7-2.4,4.6-5.5c-0.1-3-2.3-5.1-5.4-5C45.6,22,43.5,24.3,43.6,27.4z M42.6,25c0-1.9,0-3.8,0-5.6
c0-1-0.6-1.6-1.5-1.5c-0.9,0-1.5,0.6-1.5,1.5c0,0.6,0,1.1,0,1.7c0,3.2,0,6.4,0,9.5c0,0.7,0.5,1.4,1.1,1.5c1,0.3,1.9-0.5,2-1.5
C42.6,28.8,42.6,26.9,42.6,25z"/>
<path fill="#0180C7" d="M19.5,56.2c-3.3,0-6.6,0.1-9.8,0c-3.9-0.2-6.8-3.4-6.8-7.3c0-12.5,0-25.1,0-37.6C2.8,7,6.2,4,10,3.9
c4-0.1,8.1,0,12.1,0c0.1,0,0.2,0,0.2,0.1c0,0.2-0.2,0.2-0.4,0.3c-2.4,1.4-4.6,3.1-6.4,5.1c-3,3.4-5.1,7.3-5.8,11.9
c-1.3,8,1.3,14.9,6.9,20.5c1,1,1.1,1.8,0.3,3.2c-1,1.6-2.4,2.8-4,3.8c-0.2,0.1-0.3,0.2-0.5,0.3c-0.3,0.2-0.1,0.3,0.1,0.4
c0.1,0.1,0.1,0.2,0.2,0.3c1.4,1.2,2.7,2.5,4,3.8c0.6,0.6,1.3,1.2,1.9,1.8C19,55.7,19.4,55.7,19.5,56.2z"/>
<path fill="#0172B1" d="M19.5,56.2c-0.1-0.4-0.5-0.5-0.7-0.7c-0.6-0.6-1.2-1.2-1.9-1.8c-1.4-1.2-2.7-2.6-4-3.8
c-0.1-0.1-0.1-0.2-0.2-0.3c3.1,0.6,6.1,0.2,9-0.7c1-0.3,2-0.6,3-0.9c0.7-0.2,1.4-0.2,2.1,0.1c7.6,2.6,15.1,2.4,22.5-0.9
c3-1.3,5.7-3.2,8.1-5.5c0.1-0.1,0.2-0.3,0.4-0.3c0.1,0.2,0,0.4,0,0.5c0,2.3,0,4.7,0,7c0,4.1-3.2,7.3-7.3,7.3c-4.3,0-8.6,0-13,0
c-5.8,0-11.6,0-17.4,0C20,56.2,19.7,56.2,19.5,56.2z"/>
<path fill="#0180C7" d="M21.4,29.3c1.8,0,3.5,0,5.2,0c1,0,1.5,0.4,1.6,1.2c0.1,0.9-0.4,1.6-1.5,1.6c-1.9,0-3.9,0-5.8,0
c-0.6,0-1.1,0-1.7,0c-0.7,0-1.4-0.2-1.7-0.9c-0.3-0.7-0.1-1.4,0.4-2c1.9-2.4,3.7-4.7,5.6-7.1c0.1-0.1,0.2-0.3,0.3-0.4
c-0.1-0.2-0.3-0.1-0.4-0.1c-1.3,0-2.6,0-3.9,0c-0.3,0-0.6,0-0.9-0.1c-0.6-0.2-1-0.6-1-1.2c0-0.6,0.4-1.1,1-1.2
c0.3-0.1,0.6-0.1,0.9-0.1c2.1,0,4.3,0,6.4,0c0.4,0,0.8,0,1.1,0.1c0.8,0.3,1.2,1,0.8,1.8c-0.3,0.7-0.7,1.3-1.2,1.9
c-1.6,2-3.1,4-4.7,6C21.7,28.9,21.6,29,21.4,29.3z"/>
<path fill="#0180C7" d="M35.3,23c0.3-0.4,0.6-0.7,1.1-0.8c0.9-0.2,1.8,0.4,1.9,1.4c0,2.4,0,4.8,0,7.2c0,0.7-0.4,1.2-1,1.4
c-0.6,0.2-1.3,0.1-1.7-0.5c-0.2-0.3-0.3-0.3-0.6-0.1c-1.1,0.9-2.3,1-3.7,0.6c-2.1-0.7-3-2.4-3.3-4.4c-0.2-2.2,0.5-4.1,2.4-5.2
C32.1,21.6,33.8,21.7,35.3,23z M31.1,27.4c0,0.4,0.1,1,0.5,1.5c0.8,1,2.4,1,3.1,0c0.7-0.9,0.7-2.4,0-3.3c-0.4-0.5-0.8-0.7-1.4-0.8
C32,24.6,31,25.7,31.1,27.4z"/>
<path fill="#0180C7" d="M43.6,27.4c-0.1-3.1,1.9-5.4,4.8-5.5c3.1-0.1,5.3,2,5.4,5c0.1,3-1.8,5.2-4.6,5.5
C46.1,32.7,43.6,30.4,43.6,27.4z M46.6,27.1c0,0.6,0.1,1.2,0.5,1.7c0.8,1,2.3,1,3.1,0c0.7-0.9,0.7-2.5,0-3.4
c-0.4-0.5-0.8-0.7-1.4-0.8C47.6,24.7,46.6,25.6,46.6,27.1z"/>
<path fill="#0180C7" d="M42.6,25c0,1.9,0,3.7,0,5.6c0,1.1-0.9,1.8-2,1.5c-0.6-0.2-1.1-0.8-1.1-1.5c0-3.2,0-6.4,0-9.5
c0-0.6,0-1.1,0-1.7c0-0.9,0.6-1.5,1.5-1.5c0.9,0,1.5,0.6,1.5,1.5C42.6,21.3,42.6,23.2,42.6,25z"/>
<path fill="#FDFEFE" d="M31.1,27.4c0-1.7,0.9-2.7,2.2-2.6c0.6,0,1.1,0.3,1.4,0.8c0.7,0.9,0.7,2.4,0,3.3c-0.8,1-2.4,1.1-3.1,0
C31.2,28.3,31.1,27.8,31.1,27.4z"/>
<path fill="#FDFEFE" d="M46.6,27.1c0-1.5,0.9-2.5,2.2-2.4c0.6,0,1.1,0.3,1.4,0.8c0.7,0.9,0.7,2.5,0,3.4c-0.8,1-2.4,1-3.1,0
C46.8,28.3,46.6,27.8,46.6,27.1z"/>
</svg>
